<?xml version="1.0" encoding="UTF-8"?>
<svg width="40px" height="40px" viewBox="0 0 40 40" xmlns="http://www.w3.org/2000/svg" xmlns:xlink="http://www.w3.org/1999/xlink" version="1.1">
    <g id="dotnet-watch">
        <g id="inspectionsEye-copy">
            <path id="Shape-Copy-2" d="M20.1 5.786 C11.055 5.786 3.33 11.68 0.2 20 3.33 28.32 11.055 34.214 20.1 34.214 29.146 34.214 36.87 28.32 40 20 36.87 11.68 29.146 5.786 20.1 5.786 Z M20.1 10.05" fill="#f4f4f4" fill-opacity="1" stroke="none"/>
        </g>
        <path id="Shape-Copy-2-1" d="M20.1 8.107 C12.532 8.107 6.068 13.038 3.449 20 6.068 26.962 12.532 31.893 20.1 31.893 27.669 31.893 34.132 26.962 36.751 20 34.132 13.038 27.669 8.107 20.1 8.107 Z M20.1 28.325 C15.505 28.325 11.775 24.596 11.775 20 11.775 15.404 15.505 11.675 20.1 11.675 24.696 11.675 28.426 15.404 28.426 20 28.426 24.596 24.696 28.325 20.1 28.325 Z M20.1 15.243 C17.468 15.243 15.343 17.368 15.343 20 15.343 22.632 17.468 24.757 20.1 24.757 22.733 24.757 24.858 22.632 24.858 20 24.858 17.368 22.733 15.243 20.1 15.243 Z" fill="#6e6e6e" fill-opacity="1" stroke="none"/>
        <g id="New-Group">
            <path id="Path" d="M20.061 29.223 C15.013 29.223 10.904 25.115 10.904 20.065 10.904 15.015 15.013 10.907 20.061 10.907 25.109 10.907 29.219 15.015 29.219 20.065 29.219 25.115 25.109 29.223 20.061 29.223 Z" fill="#f4f4f4" fill-opacity="1" stroke="none"/>
            <path id="Path-1" d="M20.061 15.902 C17.765 15.902 15.899 17.771 15.899 20.065 15.899 22.359 17.765 24.227 20.061 24.227 22.357 24.227 24.224 22.359 24.224 20.065 24.224 17.771 22.357 15.902 20.061 15.902 Z M20.061 27.558 C15.93 27.558 12.569 24.196 12.569 20.065 12.569 15.934 15.93 12.572 20.061 12.572 24.192 12.572 27.554 15.934 27.554 20.065 27.554 24.196 24.192 27.558 20.061 27.558 Z" fill="#313131" fill-opacity="1" stroke="none"/>
            <path id="Path-2" d="M15.066 24.227 C12.77 24.227 10.904 22.359 10.904 20.065 10.904 17.771 12.77 15.902 15.066 15.902 17.362 15.902 19.229 17.771 19.229 20.065 19.229 22.359 17.362 24.227 15.066 24.227 Z" fill="#f4f4f4" fill-opacity="1" stroke="none"/>
            <path id="Path-3" d="M17.564 20.065 C17.564 21.444 16.445 22.562 15.066 22.562 13.687 22.562 12.569 21.444 12.569 20.065 12.569 18.686 13.687 17.567 15.066 17.567 16.445 17.567 17.564 18.686 17.564 20.065 Z" fill="#1aa1e2" fill-opacity="1" stroke="none"/>
        </g>
    </g>
</svg>