<?xml version="1.0" encoding="UTF-8"?>
<svg width="40px" height="40px" viewBox="0 0 40 40" xmlns="http://www.w3.org/2000/svg" xmlns:xlink="http://www.w3.org/1999/xlink" version="1.1">
    <g id="dotnet_watch_40-copy">
        <g id="New-Group">
            <g id="AnyDotNet(Color)-copy">
                <path id="Path" d="M39.694 8.237 L32.235 8.237 C27.784 8.237 25.937 11.304 25.11 13.679 24.951 13.221 24.781 12.8 24.605 12.432 22.936 8.965 20.352 8.237 18.478 8.237 L12.752 8.237 C10.412 8.237 8.647 9.682 7.521 10.771 5.071 13.142 1.776 19.271 0.224 26.4 L-0.243 28.544 -0.243 29.426 6.384 29.426 C10.015 29.426 12.47 25.978 12.935 22.732 13.037 22.025 13.247 21.253 13.53 20.479 13.789 21.644 14.043 22.684 14.283 23.4 14.989 25.516 16.306 29.454 20.357 29.454 L26.726 29.454 C29.897 29.454 31.755 26.482 33.112 24.313 34.219 22.541 38.592 13.873 39.266 11.385 L39.694 9.806 Z" fill="#f4f4f4" fill-opacity="1" stroke="none"/>
                <path id="Path-1" d="M9.256 12.565 C10.537 11.327 11.646 10.733 12.752 10.733 L18.478 10.733 C20.251 10.733 21.466 11.666 22.356 13.515 23.567 16.034 24.491 22.355 24.867 23.464 25.429 22.254 26.634 17.944 26.977 16.341 27.687 13.033 28.979 10.733 32.235 10.733 L36.856 10.733 C36.279 12.869 32.058 21.29 30.994 22.99 29.775 24.94 28.46 26.958 26.726 26.958 L20.357 26.958 C18.348 26.958 17.499 25.151 16.65 22.61 16.018 20.716 15.082 15.391 14.681 14.038 12.632 15.858 10.862 19.602 10.464 22.377 10.136 24.668 8.457 26.931 6.383 26.931 L2.663 26.931 C4.148 20.111 7.238 14.517 9.256 12.565 Z" fill="#2971b2" fill-opacity="1" stroke="none"/>
                <path id="Path-2" d="M6.218 26.93 C7.1 20.842 9.291 16.538 11.611 12.681 9.051 16.222 5.558 20.464 4.749 26.958 5.02 26.958 5.935 26.93 6.218 26.93 Z" fill="#ffffff" fill-opacity="1" stroke="none"/>
                <path id="Path-3" d="M17.103 12.335 C17.522 13.01 18.951 16.685 19.558 18.812 20.162 20.937 21.461 24.554 23.187 25.506 22.952 25.605 22.598 25.683 22.414 25.765 20.167 24.817 19.304 21.473 18.784 19.287 18.263 17.102 17.136 13.686 16.716 12.793 16.833 12.613 17.103 12.335 17.103 12.335 Z" fill="#ffffff" fill-opacity="1" stroke="none"/>
                <path id="Path-4" d="M29.203 20.122 C29.761 19.226 32.981 12.442 33.742 10.733 33.338 10.736 32.947 10.732 32.591 10.733 31.95 12.523 29.626 19.217 29.203 20.122 Z" fill="#ffffff" fill-opacity="1" stroke="none"/>
            </g>
            <path id="Path-5" d="M28.714 21.117 L28.522 21.144 C25.684 21.545 22.608 24.239 21.811 27.034 21.445 28.319 23.243 30.249 24.055 31.06 27.215 34.219 31.688 34.621 35.152 31.707 36.779 30.339 39.122 28.699 38.025 26.417 36.332 22.893 33.155 21.25 29.334 21.135 29.146 21.129 28.843 21.099 28.714 21.117 Z" fill="#dfe1e4" fill-opacity="1" stroke="none"/>
            <defs>
                <path id="Shape-Copy-2" d="M30.022 21.52 C26.334 21.52 23.185 23.923 21.91 27.314 23.185 30.706 26.334 33.109 30.022 33.109 33.709 33.109 36.858 30.706 38.134 27.314 36.858 23.923 33.709 21.52 30.022 21.52 Z M30.022 31.37 C27.783 31.37 25.966 29.553 25.966 27.314 25.966 25.075 27.783 23.258 30.022 23.258 32.261 23.258 34.078 25.075 34.078 27.314 34.078 29.553 32.261 31.37 30.022 31.37 Z M30.022 24.997 C28.739 24.997 27.704 26.032 27.704 27.314 27.704 28.597 28.739 29.632 30.022 29.632 31.304 29.632 32.34 28.597 32.34 27.314 32.34 26.032 31.304 24.997 30.022 24.997 Z"/>
            </defs>
            <use id="Shape-Copy-2-1" xlink:href="#Shape-Copy-2" fill="#6e6e6e" fill-opacity="1" stroke="none"/>
            <defs>
                <path id="stroke-path" d="M33.188 33.172 L36.656 30.844 38.844 27.344 37.141 24.328 35.047 22.438 32.531 21.25 30.016 20.906 27.516 21.25 24.969 22.438 22.906 24.313 21.766 26.094 21.219 27.344 22.109 29.188 24.953 32.219 28.906 33.703 Z M28.203 30.219 L27.094 29.094 26.594 27.344 27.094 25.578 28.563 24.25 30.172 23.906 32.188 24.688 33.219 26.156 33.422 27.5 32.938 29.094 31.828 30.219 30.016 30.719 Z M32.297 29.25 L32.984 27.625 32.641 25.906 31.438 24.719 29.984 24.344 28.125 25.016 27.172 26.438 27.172 28.234 28.563 29.922 30.344 30.281 Z"/>
            </defs>
            <use id="Shape-Copy-2-2" stroke="#f4f4f4" stroke-opacity="1" stroke-linecap="round" fill="none" stroke-width="1.248" xlink:href="#stroke-path"/>
        </g>
    </g>
</svg>
