<?xml version="1.0" encoding="UTF-8"?>
<svg width="16px" height="16px" viewBox="0 0 16 16" xmlns="http://www.w3.org/2000/svg" xmlns:xlink="http://www.w3.org/1999/xlink" version="1.1">
    <g id="dotnet_watch_16">
        <g id="New-Group">
            <g id="AnyDotNet(Color)-copy">
                <path id="Path" d="M15.975 3.149 L12.991 3.149 C11.211 3.149 10.472 4.376 10.141 5.326 10.078 5.142 10.01 4.974 9.939 4.827 9.271 3.44 8.238 3.149 7.488 3.149 L5.198 3.149 C4.262 3.149 3.556 3.727 3.106 4.163 2.126 5.111 0.808 7.563 0.187 10.414 L-0 11.272 -0 11.625 2.651 11.625 C4.103 11.625 5.085 10.245 5.271 8.947 5.312 8.664 5.396 8.355 5.509 8.046 5.613 8.512 5.714 8.928 5.81 9.214 6.093 10.061 6.62 11.636 8.24 11.636 L10.787 11.636 C12.056 11.636 12.799 10.447 13.342 9.58 13.785 8.871 15.534 5.404 15.804 4.408 L15.975 3.777 Z" fill="#f4f4f4" fill-opacity="1" stroke="none"/>
                <path id="Path-1" d="M3.8 4.88 C4.312 4.385 4.756 4.148 5.198 4.148 L7.488 4.148 C8.198 4.148 8.683 4.52 9.039 5.26 9.524 6.268 9.894 8.796 10.044 9.24 10.269 8.756 10.751 7.032 10.888 6.391 11.172 5.068 11.689 4.148 12.991 4.148 L14.84 4.148 C14.609 5.002 12.92 8.37 12.495 9.05 12.007 9.83 11.481 10.637 10.788 10.637 L8.24 10.637 C7.436 10.637 7.097 9.914 6.757 8.898 6.504 8.141 6.13 6.011 5.97 5.469 5.15 6.197 4.442 7.695 4.283 8.805 4.152 9.721 3.48 10.627 2.65 10.627 L1.162 10.627 C1.756 7.899 2.992 5.661 3.8 4.88 Z" fill="#2971b2" fill-opacity="1" stroke="none"/>
                <path id="Path-2" d="M2.584 10.626 C2.937 8.191 3.813 6.469 4.741 4.927 3.718 6.343 2.32 8.04 1.997 10.637 2.105 10.637 2.471 10.626 2.584 10.626 Z" fill="#ffffff" fill-opacity="1" stroke="none"/>
                <path id="Path-3" d="M6.938 4.788 C7.106 5.058 7.678 6.528 7.92 7.379 8.162 8.229 8.682 9.676 9.372 10.057 9.278 10.096 9.136 10.128 9.063 10.16 8.164 9.781 7.819 8.443 7.611 7.569 7.403 6.695 6.952 5.329 6.784 4.971 6.83 4.899 6.938 4.788 6.938 4.788 Z" fill="#ffffff" fill-opacity="1" stroke="none"/>
                <path id="Path-4" d="M11.778 7.903 C12.001 7.545 13.289 4.831 13.594 4.148 13.432 4.149 13.276 4.147 13.134 4.148 12.877 4.863 11.948 7.541 11.778 7.903 Z" fill="#ffffff" fill-opacity="1" stroke="none"/>
            </g>
            <path id="Path-5" d="M11.583 8.301 L11.506 8.312 C10.371 8.472 9.14 9.55 8.822 10.668 8.675 11.182 9.394 11.954 9.719 12.278 10.983 13.542 12.772 13.702 14.158 12.537 14.809 11.99 15.746 11.334 15.307 10.421 14.63 9.011 13.359 8.354 11.831 8.308 11.756 8.306 11.634 8.294 11.583 8.301 Z" fill="#dfe1e4" fill-opacity="1" stroke="none"/>
            <defs>
                <path id="Shape-Copy-2" d="M12.106 8.462 C10.631 8.462 9.371 9.423 8.861 10.78 9.371 12.137 10.631 13.098 12.106 13.098 13.581 13.098 14.84 12.137 15.351 10.78 14.84 9.423 13.581 8.462 12.106 8.462 Z M12.106 12.402 C11.21 12.402 10.483 11.676 10.483 10.78 10.483 9.884 11.21 9.158 12.106 9.158 13.001 9.158 13.728 9.884 13.728 10.78 13.728 11.676 13.001 12.402 12.106 12.402 Z M12.106 9.853 C11.593 9.853 11.179 10.267 11.179 10.78 11.179 11.293 11.593 11.707 12.106 11.707 12.619 11.707 13.033 11.293 13.033 10.78 13.033 10.267 12.619 9.853 12.106 9.853 Z"/>
            </defs>
            <use id="Shape-Copy-2-1" xlink:href="#Shape-Copy-2" fill="#6e6e6e" fill-opacity="1" stroke="none"/>
            <defs>
                <path id="stroke-path" d="M13.5 13.078 L14.844 12.094 15.641 10.766 14.016 8.75 12.094 8.203 10.188 8.75 8.672 10.469 9 11.625 10.188 12.828 11.813 13.344 Z M11.609 11.828 L12.328 11.969 13.125 11.453 13.125 10.109 12.063 9.563 10.922 10.484 10.922 10.156 12.094 9.469 13.281 10.156 13.281 11.422 12.094 12.109 Z M10.922 11.422 L10.922 10.594 11.344 11.672 Z"/>
            </defs>
            <use id="Shape-Copy-2-2" stroke="#f4f4f4" stroke-opacity="1" stroke-linecap="round" fill="none" stroke-width="0.499" xlink:href="#stroke-path"/>
        </g>
    </g>
</svg>
