<?xml version="1.0" encoding="UTF-8"?>
<svg width="16px" height="16px" viewBox="0 0 16 16" xmlns="http://www.w3.org/2000/svg" xmlns:xlink="http://www.w3.org/1999/xlink" version="1.1">
<g id="dotnet-watch">
    <g id="inspectionsEye">
        <path id="Shape-Copy-2" d="M8 2.429 C4.364 2.429 1.258 4.798 0 8.143 1.258 11.488 4.364 13.857 8 13.857 11.636 13.857 14.742 11.488 16 8.143 14.742 4.798 11.636 2.429 8 2.429 Z M8 4.143" fill="#f4f4f4" fill-opacity="1" stroke="none"/>
    </g>
    <path id="Shape-Copy-2-1" d="M8 3.362 C4.957 3.362 2.359 5.344 1.306 8.143 2.359 10.942 4.957 12.924 8 12.924 11.043 12.924 13.641 10.942 14.694 8.143 13.641 5.344 11.043 3.362 8 3.362 Z M8 11.49 C6.152 11.49 4.653 9.99 4.653 8.143 4.653 6.295 6.152 4.796 8 4.796 9.848 4.796 11.347 6.295 11.347 8.143 11.347 9.99 9.848 11.49 8 11.49 Z M8 6.23 C6.942 6.23 6.087 7.085 6.087 8.143 6.087 9.201 6.942 10.055 8 10.055 9.058 10.055 9.913 9.201 9.913 8.143 9.913 7.085 9.058 6.23 8 6.23 Z" fill="#6e6e6e" fill-opacity="1" stroke="none"/>
    <g id="New-Group">
        <path id="Path" d="M7.984 11.85 C5.955 11.85 4.303 10.199 4.303 8.169 4.303 6.139 5.955 4.488 7.984 4.488 10.014 4.488 11.666 6.139 11.666 8.169 11.666 10.199 10.014 11.85 7.984 11.85 Z" fill="#f4f4f4" fill-opacity="1" stroke="none"/>
        <path id="Path-1" d="M7.984 6.496 C7.061 6.496 6.311 7.247 6.311 8.169 6.311 9.091 7.061 9.842 7.984 9.842 8.907 9.842 9.658 9.091 9.658 8.169 9.658 7.247 8.907 6.496 7.984 6.496 Z M7.984 11.181 C6.324 11.181 4.972 9.83 4.972 8.169 4.972 6.508 6.324 5.157 7.984 5.157 9.645 5.157 10.996 6.508 10.996 8.169 10.996 9.83 9.645 11.181 7.984 11.181 Z" fill="#313131" fill-opacity="1" stroke="none"/>
        <path id="Path-2" d="M5.976 9.842 C5.053 9.842 4.303 9.091 4.303 8.169 4.303 7.247 5.053 6.496 5.976 6.496 6.899 6.496 7.65 7.247 7.65 8.169 7.65 9.091 6.899 9.842 5.976 9.842 Z" fill="#f4f4f4" fill-opacity="1" stroke="none"/>
        <path id="Path-3" d="M6.98 8.169 C6.98 8.723 6.53 9.173 5.976 9.173 5.422 9.173 4.972 8.723 4.972 8.169 4.972 7.615 5.422 7.165 5.976 7.165 6.53 7.165 6.98 7.615 6.98 8.169 Z" fill="#1aa1e2" fill-opacity="1" stroke="none"/>
    </g>
</g>
</svg>

